<?xml version="1.0" encoding="UTF-8" standalone="no"?>
<svg
   xmlns:dc="http://purl.org/dc/elements/1.1/"
   xmlns:cc="http://creativecommons.org/ns#"
   xmlns:rdf="http://www.w3.org/1999/02/22-rdf-syntax-ns#"
   xmlns:svg="http://www.w3.org/2000/svg"
   xmlns="http://www.w3.org/2000/svg"
   width="60.719135mm"
   height="59.737011mm"
   viewBox="0 0 215.14654 211.66657"
   id="svg2"
   version="1.1"
   style="enable-background:new">
  <g
     style="display:inline"
     id="g4158"
     transform="translate(-255.19728,-402.8418)">
    <path
       style="fill:#5d83ac;fill-opacity:1;fill-rule:evenodd;stroke:#ffffff;stroke-width:12.23160934;stroke-linecap:butt;stroke-linejoin:miter;stroke-miterlimit:4;stroke-dasharray:none;stroke-opacity:1"
       d="m 435.10547,408.9576 a 29.122881,29.122881 0 0 0 -27.74091,20.29285 97.264647,96.106729 0 0 0 -48.78708,-13.07174 97.264647,96.106729 0 0 0 -97.2644,96.10732 97.264647,96.106729 0 0 0 97.2644,96.10653 97.264647,96.106729 0 0 0 97.26439,-96.10653 97.264647,96.106729 0 0 0 -12.20454,-46.39013 29.122881,29.122881 0 0 0 20.59068,-27.81497 29.122881,29.122881 0 0 0 -29.12254,-29.12333 z"
       id="ellipse4160" />
  </g>
  <g
     id="layer4"
     style="display:inline"
     transform="translate(-255.19728,-402.8418)">
    <path
       style="fill:#ffffff;fill-opacity:1;fill-rule:evenodd;stroke:none;stroke-width:1px;stroke-linecap:butt;stroke-linejoin:miter;stroke-opacity:1"
       d="m 296.45132,541.26297 29.41411,0.0728 33.05447,-44.77643 20.38601,25.04568 -31.74393,0.14561 -13.90618,19.58514 89.26162,-0.29123 -48.48959,-68.94842 c -7.04045,-10.01098 -21.49339,-9.61006 -28.54042,0.21842 z"
       id="path4171" />
    <path
       style="fill:#ffffff;fill-opacity:1;fill-rule:evenodd;stroke:none;stroke-width:1px;stroke-linecap:butt;stroke-linejoin:miter;stroke-opacity:1"
       d="m 421.27927,425.2811 3.16711,4.65966 16.52723,0.21843 c 3.23045,0.0427 3.15354,3.76824 -0.0728,3.78597 l -13.25091,0.0728 3.71316,4.65967 10.1202,0.21842 c 3.81726,0.0824 3.8842,3.55441 0.21843,3.56755 l -20.31321,-0.29123 3.42193,4.15001 17.1097,0.43684 c 4.1983,0.10719 13.31795,-4.18689 6.40703,-10.84827 6.20762,-5.64993 -2.03124,-10.4991 -6.15221,-10.52064 z"
       id="path4177" />
  </g>
</svg>
